#!OML:ASF H:\LiuWeirdWalks\Patient Classification 1\Patient 1\Session 1\male.ASF
:FULLY-SPECIFIED
:DEGREES
146
root -1.07737 17.7565 -22.065 12.9357 0.331631 -1.52359
lowerback 10.5876 1.21239 1.12423
upperback -1.65528 2.03068 3.4354
thorax -7.80113 1.0256 2.65821
lowerneck -16.2846 1.21376 -0.337275
upperneck 12.9834 2.87433 -6.91666
head 6.75095 0.757749 -1.88109
rclavicle -5.76476e-015 -1.43125e-014
rhumerus -18.8754 5.68218 -80.8532
rradius 33.1569
rwrist -11.3606
rhand -19.1719 1.02314
rfingers 7.12502
rthumb 7.13924 -28.8364
lclavicle -5.76476e-015 -1.43125e-014
lhumerus -54.7877 16.9245 70.6433
lradius 19.5199
lwrist -3.5135
lhand -15.5323 0.106965
lfingers 7.12502
lthumb 10.6514 29.817
rfemur 9.3034 0.00563008 22.4791
rtibia 19.1985
rfoot 7.20275 -16.2563
rtoes -26.7796
lfemur -41.4951 1.56223 -20.1538
ltibia 32.5506
lfoot -18.2185 17.7535
ltoes -15.867
147
root -1.04753 17.7616 -21.8562 12.7177 0.261197 -1.06301
lowerback 10.6835 1.10667 0.579775
upperback -1.56631 1.81123 3.37046
thorax -7.76605 0.940834 2.93384
lowerneck -16.2374 1.2671 -0.533459
upperneck 13.0059 2.97033 -6.78195
head 6.74878 0.805985 -1.79534
rclavicle -7.7526e-015 1.19271e-014
rhumerus -18.8719 6.18744 -80.805
rradius 33.3479
rwrist -11.0993
rhand -19.1275 1.22483
rfingers 7.12502
rthumb 7.18206 -28.6333
lclavicle -7.7526e-015 1.19271e-014
lhumerus -55.1479 17.9156 69.7905
lradius 19.1609
lwrist -3.99235
lhand -15.5936 0.146954
lfingers 7.12502
lthumb 10.5922 29.86
rfemur 8.85157 -0.28084 21.6959
rtibia 21.0852
rfoot 8.79769 -15.684
rtoes -27.4997
lfemur -40.7329 1.09029 -20.6049
ltibia 33.0688
lfoot -18.7153 18.3299
ltoes -15.5325
148
root -1.016 17.7727 -21.6408 12.5157 0.269209 -0.633504
lowerback 10.7433 1.16975 0.156167
upperback -1.43189 1.82203 3.19409
thorax -7.66328 0.958875 2.98275
lowerneck -16.5142 1.18081 -0.316759
upperneck 13.1604 2.82863 -6.83573
head 6.84418 0.734372 -1.86411
rclavicle -2.5842e-015 2.14687e-014
rhumerus -18.9003 5.93248 -80.6438
rradius 33.4272
rwrist -10.6476
rhand -19.1533 1.28636
rfingers 7.12502
rthumb 7.15713 -28.5726
lclavicle -2.5842e-015 2.14687e-014
lhumerus -54.9568 18.345 69.2473
lradius 18.6921
lwrist -4.51132
lhand -15.5304 0.124004
lfingers 7.12502
lthumb 10.6532 29.8339
rfemur 8.2147 -0.606498 20.9255
rtibia 23.0983
rfoot 10.8761 -15.0995
rtoes -28.1208
lfemur -39.9198 0.629726 -21.0389
ltibia 33.3988
lfoot -19.1417 18.5194
ltoes -15.5372
149
root -0.982426 17.7873 -21.4199 12.3384 0.325525 -0.292728
lowerback 10.7425 1.37891 -0.0747431
upperback -1.2612 2.04483 2.92653
thorax -7.48876 1.0686 2.78971
lowerneck -17.0307 0.986011 0.249852
upperneck 13.3912 2.48759 -7.03491
head 7.00297 0.565937 -2.06109
rclavicle 4.96962e-015 1.82882e-014
rhumerus -18.9896 5.0818 -80.4202
rradius 33.4191
rwrist -10.2623
rhand -19.3532 1.23263
rfingers 7.12502
rthumb 6.96419 -28.6328
lclavicle 4.96962e-015 1.82882e-014
lhumerus -54.2573 18.3051 68.9659
lradius 18.1158
lwrist -5.0517
lhand -15.3529 0.0346486
lfingers 7.12502
lthumb 10.8244 29.7357
rfemur 7.3812 -0.892929 20.2269
rtibia 25.2263
rfoot 13.5094 -14.4973
rtoes -28.366
lfemur -39.0542 0.246998 -21.4097
ltibia 33.5804
lfoot -19.6048 18.2744
ltoes -15.6788
150
root -0.94723 17.8037 -21.1954 12.2057 0.39492 -0.0930649
lowerback 10.6829 1.73497 -0.0628395
upperback -1.06276 2.4883 2.57093
thorax -7.24725 1.27376 2.33133
lowerneck -17.8331 0.683709 1.11349
upperneck 13.7587 1.94294 -7.3118
head 7.24648 0.301099 -2.36127
rclavicle 1.05356e-014 7.95139e-015
rhumerus -19.1375 3.65022 -80.159
rradius 33.3171
rwrist -9.9146
rhand -19.6745 1.13661
rfingers 7.12502
rthumb 6.65403 -28.7388
lclavicle 1.05356e-014 7.95139e-015
lhumerus -53.0605 17.8195 68.8993
lradius 17.4201
lwrist -5.69645
lhand -15.1501 -0.255777
lfingers 7.12502
lthumb 11.02 29.435
rfemur 6.32298 -1.05864 19.6622
rtibia 27.4904
rfoot 16.6836 -13.8639
rtoes -28.0887
lfemur -38.1633 -0.00609061 -21.6686
ltibia 33.657
lfoot -20.1009 17.7272
ltoes -15.9438
151
root -0.910535 17.8208 -20.9683 12.0966 0.42772 -0.0307479
lowerback 10.5931 2.15595 0.15099
upperback -0.866594 3.04174 2.17518
thorax -6.97663 1.52554 1.7042
lowerneck -18.7902 0.369779 2.14904
upperneck 14.2262 1.33189 -7.62882
head 7.54091 0.00814629 -2.72064
rclavicle 8.94531e-015 -1.19271e-014
rhumerus -19.3655 1.99719 -79.9287
rradius 33.1296
rwrist -9.6648
rhand -20.0669 1.04126
rfingers 7.12502
rthumb 6.27525 -28.8458
lclavicle 8.94531e-015 -1.19271e-014
lhumerus -51.6097 17.125 68.9299
lradius 16.6954
lwrist -6.3579
lhand -14.8572 -0.532827
lfingers 7.12502
lthumb 11.3024 29.1426
rfemur 5.05811 -1.04819 19.2268
rtibia 29.9226
rfoot 20.3424 -13.117
rtoes -27.1097
lfemur -37.2226 -0.0859108 -21.8275
ltibia 33.6599
lfoot -20.6342 17.086
ltoes -16.1902
152
root -0.873215 17.8388 -20.7398 12.0027 0.408679 -0.0683862
lowerback 10.4907 2.52835 0.444379
upperback -0.721748 3.54555 1.83225
thorax -6.73956 1.75394 1.10254
lowerneck -19.645 0.107535 3.07211
upperneck 14.7159 0.787996 -7.87918
head 7.82132 -0.246951 -3.03921
rclavicle -2.3059e-014 -4.77083e-015
rhumerus -19.7076 0.602567 -79.7559
rradius 32.8832
rwrist -9.54821
rhand -20.4775 0.88763
rfingers 7.12502
rthumb 5.87887 -29.0108
lclavicle -2.3059e-014 -4.77083e-015
lhumerus -50.2531 16.5195 68.9773
lradius 16.0382
lwrist -6.96728
lhand -14.5529 -0.863683
lfingers 7.12502
lthumb 11.5959 28.7955
rfemur 3.60391 -0.880253 18.8899
rtibia 32.5665
rfoot 24.3356 -12.2076
rtoes -24.9476
lfemur -36.2322 0.00725314 -21.9204
ltibia 33.5999
lfoot -21.1624 16.5457
ltoes -16.3051
153
root -0.835832 17.8579 -20.5103 11.8764 0.308127 -0.142725
lowerback 10.4104 2.78737 0.687203
upperback -0.629747 3.90118 1.60082
thorax -6.57032 1.91561 0.67286
lowerneck -20.2574 -0.0610223 3.70674
upperneck 15.237 0.419432 -8.00706
head 8.07688 -0.41529 -3.25111
rclavicle 2.00773e-014 -8.74653e-015
rhumerus -20.1403 -0.261168 -79.634
rradius 32.5909
rwrist -9.46429
rhand -20.8011 0.60142
rfingers 7.12502
rthumb 5.56641 -29.3055
lclavicle 2.00773e-014 -8.74653e-015
lhumerus -49.1893 16.2961 68.9385
lradius 15.4612
lwrist -7.56813
lhand -14.2615 -1.18674
lfingers 7.12502
lthumb 11.877 28.4564
rfemur 2.02074 -0.608469 18.5799
rtibia 35.4585
rfoot 28.2932 -11.0607
rtoes -21.3719
lfemur -35.1454 0.250897 -22.0043
ltibia 33.4695
lfoot -21.5867 16.2849
ltoes -16.3331
154
root -0.799392 17.8776 -20.2809 11.6954 0.131575 -0.175222
lowerback 10.3729 2.92608 0.783038
upperback -0.58952 4.08775 1.4782
thorax -6.4925 2.0019 0.464544
lowerneck -20.5645 -0.127334 4.08137
upperneck 15.7348 0.247623 -8.05051
head 8.28456 -0.488781 -3.36504
rclavicle 2.62396e-014 1.11319e-014
rhumerus -20.6675 -0.621264 -79.5398
rradius 32.2553
rwrist -9.30833
rhand -20.9647 0.23413
rfingers 7.12502
rthumb 5.40841 -29.6769
lclavicle 2.62396e-014 1.11319e-014
lhumerus -48.4653 16.4237 68.8683
lradius 15.0183
lwrist -8.09655
lhand -13.9921 -1.39473
lfingers 7.12502
lthumb 12.1367 28.2332
rfemur 0.346595 -0.323209 18.2238
rtibia 38.6202
rfoot 31.3993 -9.84686
rtoes -17.5744
lfemur -33.9447 0.614474 -22.1537
ltibia 33.2476
lfoot -21.8627 16.3152
ltoes -16.3885
155
root -0.764364 17.8975 -20.0521 11.4532 -0.105464 -0.097627
lowerback 10.3696 2.91515 0.644736
upperback -0.591896 4.05644 1.48207
thorax -6.50287 1.99137 0.550768
lowerneck -20.5024 -0.0764173 4.13049
upperneck 16.1506 0.319809 -8.01107
head 8.4186 -0.449909 -3.35932
rclavicle 2.127e-014 3.97569e-015
rhumerus -21.2598 -0.397619 -79.4544
rradius 31.8822
rwrist -9.07259
rhand -20.9484 -0.169201
rfingers 7.12502
rthumb 5.42413 -30.0798
lclavicle 2.127e-014 3.97569e-015
lhumerus -48.1312 16.9763 68.7793
lradius 14.7073
lwrist -8.51416
lhand -13.8282 -1.56382
lfingers 7.12502
lthumb 12.2948 28.0547
rfemur -1.39487 -0.124574 17.7534
rtibia 42.0326
rfoot 33.1106 -8.79466
rtoes -14.2159
lfemur -32.622 1.03449 -22.4246
ltibia 32.9101
lfoot -21.986 16.5593
ltoes -16.427
156
root -0.73206 17.9167 -19.8254 11.1678 -0.352746 0.133783
lowerback 10.4158 2.88808 0.322138
upperback -0.56798 3.97837 1.44877
thorax -6.52258 1.9634 0.706639
lowerneck -20.4301 0.00154379 4.23158
upperneck 16.4924 0.416431 -8.00507
head 8.52805 -0.398775 -3.36875
rclavicle 2.34566e-014 -4.77083e-015
rhumerus -21.8403 -0.308832 -79.3729
rradius 31.4793
rwrist -8.56376
rhand -20.6971 -0.499613
rfingers 7.12502
rthumb 5.66679 -30.4038
lclavicle 2.34566e-014 -4.77083e-015
lhumerus -47.7044 17.4982 68.7929
lradius 14.4563
lwrist -8.85407
lhand -13.7994 -1.63984
lfingers 7.12502
lthumb 12.3226 27.9771
rfemur -3.19981 -0.112842 17.1415
rtibia 45.6409
rfoot 33.3579 -8.1107
rtoes -11.1541
lfemur -31.2063 1.4634 -22.8536
ltibia 32.4377
lfoot -21.9431 16.8699
ltoes -16.5594
157
root -0.702817 17.9341 -19.6016 10.8482 -0.561618 0.548509
lowerback 10.5119 2.83604 -0.196908
upperback -0.524775 3.83892 1.36667
thorax -6.55774 1.91101 0.929428
lowerneck -20.3243 0.097822 4.42135
upperneck 16.7102 0.521327 -8.07342
head 8.59081 -0.344187 -3.4142
rclavicle 1.05356e-014 8.74653e-015
rhumerus -22.4232 -0.336644 -79.3061
rradius 31.0791
rwrist -7.99304
rhand -20.3288 -0.761982
rfingers 7.12502
rthumb 6.02236 -30.6564
lclavicle 1.05356e-014 8.74653e-015
lhumerus -47.1706 17.8899 68.977
lradius 14.2923
lwrist -9.02832
lhand -13.9068 -1.63734
lfingers 7.12502
lthumb 12.219 27.9857
rfemur -5.06472 -0.341028 16.3661
rtibia 49.3508
rfoot 31.8824 -7.89097
rtoes -9.67678
lfemur -29.7065 1.84198 -23.46
ltibia 31.8231
lfoot -21.7696 17.0818
ltoes -16.7018
